<svg xmlns="http://www.w3.org/2000/svg" viewBox="0 0 100 100"><rect width="100" height="100" rx="20" fill="#0F2B5B"/><g transform="translate(18 18) scale(0.02590)"><g transform="translate(-980 -4)"><g><path d="M1175.84 200.921 1175.84 2280.08 3254.16 2280.08 3254.16 200.921ZM981 5.99985 3449 5.99985 3449 2475 981 2475Z" fill="#FFFFFF" fill-rule="evenodd" fill-opacity="1"/><path d="M1995.05 363.984 1338.89 1465.34 2440.25 2121.5 3096.41 1020.14ZM1953.31 199.217 3261.17 978.405 2481.98 2286.26 1174.13 1507.08Z" fill="#FFFFFF" fill-rule="evenodd" fill-opacity="1"/><path d="M2369.64 706.006 1674.81 1067.44 2036.24 1762.26 2731.07 1400.83ZM2400.9 606.982 2830.1 1432.09 2004.99 1861.29 1575.79 1036.18Z" fill="#FFFFFF" fill-rule="evenodd" fill-opacity="1"/><path d="M2462.97 1008.35 1980.92 974.116 1946.69 1456.16 2428.74 1490.39ZM2511.37 966.365 2470.72 1538.79 1898.29 1498.14 1938.94 925.715Z" fill="#FFFFFF" fill-rule="evenodd" fill-opacity="1"/><path d="M2416.41 1202 2169.68 1026.26 1993.94 1273 2240.67 1448.74ZM2456.02 1195.35 2247.33 1488.34 1954.33 1279.65 2163.02 986.658Z" fill="#FFFFFF" fill-rule="evenodd" fill-opacity="1"/><path d="M2329.49 1281.59 2244.94 1115.93 2079.28 1200.48 2163.83 1366.14ZM2352.95 1289.19 2156.22 1389.6 2055.82 1192.88 2252.54 1092.47Z" fill="#FFFFFF" fill-rule="evenodd" fill-opacity="1"/></g></g></g></svg>