<svg width="716" height="358" xmlns="http://www.w3.org/2000/svg" xmlns:xlink="http://www.w3.org/1999/xlink" xml:space="preserve" overflow="hidden"><defs><clipPath id="clip0"><rect x="296" y="358" width="716" height="358"/></clipPath><clipPath id="clip1"><rect x="296" y="358" width="716" height="358"/></clipPath><clipPath id="clip2"><rect x="297" y="359" width="715" height="357"/></clipPath><clipPath id="clip3"><rect x="297" y="359" width="715" height="357"/></clipPath><clipPath id="clip4"><rect x="297" y="2" width="715" height="714"/></clipPath></defs><g clip-path="url(#clip0)" transform="translate(-296 -358)"><g clip-path="url(#clip1)"><g clip-path="url(#clip2)"><g clip-path="url(#clip3)"><g clip-path="url(#clip4)"><path d="M339.612 58.031 339.612 658.544 939.882 658.544 939.882 58.031ZM283.337 1.73291 996.157 1.73291 996.157 714.841 283.337 714.841Z" fill="#4CAF50" fill-rule="evenodd" fill-opacity="1" transform="matrix(1.00184 0 0 1 13.4306 1.15872)"/><path d="M494.468 106.8 388.146 503.598 784.945 609.917 891.264 213.121ZM467.238 59.6322 938.432 185.889 812.175 657.085 340.981 530.828Z" fill="#4CAF50" fill-rule="evenodd" fill-opacity="1" transform="matrix(1.00184 0 0 1 13.4306 1.15872)"/><path d="M639.706 179.605 460.953 358.359 639.706 537.113 818.46 358.359ZM639.706 146.088 851.978 358.359 639.706 570.628 427.435 358.359Z" fill="#4CAF50" fill-rule="evenodd" fill-opacity="1" transform="matrix(1.00184 0 0 1 13.4306 1.15872)"/><path d="M695.568 261.605 542.953 302.498 583.845 455.113 736.46 414.218ZM706.041 243.464 754.601 424.694 573.372 473.254 524.812 292.025Z" fill="#4CAF50" fill-rule="evenodd" fill-opacity="1" transform="matrix(1.00184 0 0 1 13.4306 1.15872)"/><path d="M698.448 325.124 607.41 298.679 580.965 389.717 672.003 416.162ZM709.461 319.07 678.057 427.175 569.952 395.771 601.356 287.667Z" fill="#4CAF50" fill-rule="evenodd" fill-opacity="1" transform="matrix(1.00184 0 0 1 13.4306 1.15872)"/></g></g></g></g></g></svg>