<svg width="344" height="344" xmlns="http://www.w3.org/2000/svg" xmlns:xlink="http://www.w3.org/1999/xlink" xml:space="preserve" overflow="hidden"><g transform="translate(-381 -376)"><g><g><g><g><path d="M409.185 404.335 409.185 692.943 697.677 692.943 697.677 404.335ZM382.139 377.278 724.722 377.278 724.722 720 382.139 720Z" fill="#255527" fill-rule="evenodd" fill-opacity="1"/><path d="M483.609 427.773 432.51 618.476 623.213 669.573 674.311 478.871ZM470.522 405.104 696.98 465.784 636.3 692.242 409.843 631.563Z" fill="#255527" fill-rule="evenodd" fill-opacity="1"/><path d="M553.411 462.763 467.502 548.674 553.411 634.583 639.321 548.674ZM553.411 446.655 655.43 548.674 553.411 650.691 451.393 548.674Z" fill="#255527" fill-rule="evenodd" fill-opacity="1"/><path d="M580.258 502.173 506.911 521.826 526.564 595.174 599.911 575.519ZM585.292 493.454 608.63 580.554 521.531 603.892 498.192 516.793Z" fill="#255527" fill-rule="evenodd" fill-opacity="1"/><path d="M581.642 532.701 537.889 519.991 525.18 563.744 568.933 576.454ZM586.935 529.791 571.842 581.746 519.887 566.654 534.98 514.698Z" fill="#255527" fill-rule="evenodd" fill-opacity="1"/></g></g></g></g></g></svg>