<svg width="2320" height="582" xmlns="http://www.w3.org/2000/svg" xmlns:xlink="http://www.w3.org/1999/xlink" xml:space="preserve" overflow="hidden"><g transform="translate(-925 -385)"><g><g><g><g><g><g><path d="M168.497 28.6041 168.497 326.709 466.602 326.709 466.602 28.6041ZM140.549 0.656767 494.549 0.656767 494.549 354.657 140.549 354.657Z" fill="#000000" fill-rule="evenodd" fill-opacity="1" transform="matrix(1.00282 0 0 1 789.054 436.343)"/><path d="M285.882 52.1573 191.858 209.977 349.677 304.001 443.701 146.182ZM279.901 28.5469 467.312 140.201 355.658 327.612 168.247 215.958Z" fill="#000000" fill-rule="evenodd" fill-opacity="1" transform="matrix(1.00282 0 0 1 789.054 436.343)"/><path d="M339.56 101.168 239.994 152.959 291.785 252.525 391.351 200.734ZM344.038 86.9776 405.541 205.212 287.306 266.714 225.804 148.48Z" fill="#000000" fill-rule="evenodd" fill-opacity="1" transform="matrix(1.00282 0 0 1 789.054 436.343)"/><path d="M352.933 144.492 283.858 139.586 278.953 208.662 348.027 213.567ZM359.868 138.476 354.043 220.503 272.017 214.678 277.842 132.651Z" fill="#000000" fill-rule="evenodd" fill-opacity="1" transform="matrix(1.00282 0 0 1 789.054 436.343)"/><path d="M346.261 172.242 310.906 147.059 285.723 182.415 321.079 207.598ZM351.937 171.288 322.032 213.273 280.048 183.369 309.952 141.384Z" fill="#000000" fill-rule="evenodd" fill-opacity="1" transform="matrix(1.00282 0 0 1 789.054 436.343)"/><path d="M333.806 183.647 321.69 159.908 297.951 172.024 310.067 195.763ZM337.167 184.736 308.978 199.124 294.59 170.934 322.78 156.546Z" fill="#000000" fill-rule="evenodd" fill-opacity="1" transform="matrix(1.00282 0 0 1 789.054 436.343)"/></g></g></g></g></g><text fill="#000000" fill-opacity="1" font-family="Nunito Sans Normal SemiBold,Nunito Sans Normal SemiBold_MSFontService,sans-serif" font-style="normal" font-variant="normal" font-weight="600" font-stretch="normal" font-size="275" text-anchor="start" direction="ltr" writing-mode="lr-tb" unicode-bidi="normal" text-decoration="none" transform="matrix(1 0 0 1 1358.67 716)">DealAnalysis</text><text fill="#000000" fill-opacity="1" font-family="Nunito Sans Normal SemiBold,Nunito Sans Normal SemiBold_MSFontService,sans-serif" font-style="normal" font-variant="normal" font-weight="600" font-stretch="normal" font-size="275" text-anchor="start" direction="ltr" writing-mode="lr-tb" unicode-bidi="normal" text-decoration="none" transform="matrix(1 0 0 1 3006.95 716)"> </text></g></g></svg>