<svg width="2471" height="2471" xmlns="http://www.w3.org/2000/svg" xmlns:xlink="http://www.w3.org/1999/xlink" xml:space="preserve" overflow="hidden"><g transform="translate(-980 -4)"><g><path d="M1175.84 200.921 1175.84 2280.08 3254.16 2280.08 3254.16 200.921ZM981 5.99985 3449 5.99985 3449 2475 981 2475Z" fill="#000000" fill-rule="evenodd" fill-opacity="1"/><path d="M1712 369.773 1343.88 1743.61 2717.72 2111.72 3085.83 737.89ZM1617.72 206.465 3249.14 643.604 2812 2275.03 1180.58 1837.89Z" fill="#000000" fill-rule="evenodd" fill-opacity="1"/><path d="M2214.86 621.846 1595.96 1240.75 2214.86 1859.65 2833.76 1240.75ZM2214.86 505.802 2949.81 1240.75 2214.86 1975.69 1479.91 1240.75Z" fill="#000000" fill-rule="evenodd" fill-opacity="1"/><path d="M2408.27 905.757 1879.87 1047.34 2021.45 1575.74 2549.85 1434.15ZM2444.53 842.946 2612.66 1470.42 1985.19 1638.55 1817.06 1011.08Z" fill="#000000" fill-rule="evenodd" fill-opacity="1"/><path d="M2418.24 1125.68 2103.04 1034.12 2011.48 1349.32 2326.68 1440.88ZM2456.37 1104.72 2347.64 1479.01 1973.35 1370.28 2082.08 995.99Z" fill="#000000" fill-rule="evenodd" fill-opacity="1"/></g></g></svg>