<svg width="716" height="360" xmlns="http://www.w3.org/2000/svg" xmlns:xlink="http://www.w3.org/1999/xlink" xml:space="preserve" overflow="hidden"><defs><clipPath id="clip0"><rect x="296" y="0" width="716" height="360"/></clipPath><clipPath id="clip1"><rect x="296" y="0" width="716" height="360"/></clipPath><clipPath id="clip2"><rect x="297" y="1" width="715" height="358"/></clipPath><clipPath id="clip3"><rect x="297" y="1" width="715" height="359"/></clipPath></defs><g clip-path="url(#clip0)" transform="translate(-296 0)"><g clip-path="url(#clip1)"><g clip-path="url(#clip2)"><g clip-path="url(#clip3)"><g><path d="M340.237 58.1378 340.237 659.756 941.612 659.756 941.612 58.1378ZM283.859 1.7361 997.991 1.7361 997.991 716.157 283.859 716.157Z" fill="#4CAF50" fill-rule="evenodd" fill-opacity="1" transform="matrix(1 0 0 1.00096 13.4306 -0.158535)"/><path d="M495.378 106.996 388.86 504.525 786.39 611.04 892.905 213.513ZM468.098 59.742 940.16 186.231 813.671 658.295 341.609 531.805Z" fill="#4CAF50" fill-rule="evenodd" fill-opacity="1" transform="matrix(1 0 0 1.00096 13.4306 -0.158535)"/><path d="M640.884 179.935 461.801 359.019 640.884 538.102 819.967 359.019ZM640.884 146.357 853.547 359.019 640.884 571.679 428.222 359.019Z" fill="#4CAF50" fill-rule="evenodd" fill-opacity="1" transform="matrix(1 0 0 1.00096 13.4306 -0.158535)"/><path d="M696.849 262.087 543.953 303.055 584.92 455.951 737.816 414.981ZM707.341 243.912 755.99 425.476 574.428 474.125 525.778 292.563Z" fill="#4CAF50" fill-rule="evenodd" fill-opacity="1" transform="matrix(1 0 0 1.00096 13.4306 -0.158535)"/><path d="M699.734 325.723 608.528 299.229 582.035 390.435 673.24 416.928ZM710.767 319.658 679.305 427.961 571.002 396.499 602.463 288.196Z" fill="#4CAF50" fill-rule="evenodd" fill-opacity="1" transform="matrix(1 0 0 1.00096 13.4306 -0.158535)"/></g></g></g></g></g></svg>